<svg width="901" height="521" viewBox="0 0 901 521" fill="none" xmlns="http://www.w3.org/2000/svg">
<path fill-rule="evenodd" clip-rule="evenodd" d="M542.939 504.44C518.326 467.528 506.377 431.179 505.143 395.393C502.61 320.443 538.523 264.472 591.84 224.182C647.949 181.802 705.617 171.267 761.661 139.663C789.651 123.901 823.096 98.0865 878.686 43.0804C896.804 102.67 839.006 198.448 745.166 249.112C774.26 250.479 805.562 239.462 839.786 212.12C837.448 287.874 789.326 334.516 682.368 352.53C704.838 361.858 731.723 362.341 766.012 350.359C733.087 486.748 596.775 388.959 542.939 504.44ZM423.057 504.44C447.67 467.528 459.619 431.179 460.853 395.393C463.386 320.443 427.473 264.472 374.157 224.182C318.047 181.802 260.379 171.267 204.335 139.663C176.345 123.82 142.901 98.0061 87.3108 43C69.1922 102.59 126.99 198.368 220.83 249.032C191.736 250.399 160.435 239.381 126.211 212.039C128.549 287.793 176.67 334.436 283.628 352.449C261.159 361.778 234.273 362.26 199.984 350.278C232.909 486.748 369.221 388.959 423.057 504.44Z" fill="url(#paint0_linear)" fill-opacity="0.2"/>
<defs>
<linearGradient id="paint0_linear" x1="482.998" y1="43" x2="482.998" y2="504.44" gradientUnits="userSpaceOnUse">
<stop stop-color="#16222A"/>
<stop offset="1" stop-color="#3A6073"/>
</linearGradient>
</defs>
</svg>
