<svg width="948" height="539" viewBox="0 0 948 539" fill="none" xmlns="http://www.w3.org/2000/svg">
<path fill-rule="evenodd" clip-rule="evenodd" d="M545.208 539C515.968 495.884 501.773 453.425 500.307 411.624C497.299 324.076 539.962 258.697 603.3 211.636C669.956 162.132 738.463 149.827 805.042 112.91C838.293 94.4988 878.024 64.3456 944.063 0.0939352C965.587 69.6999 896.925 181.577 785.446 240.756C820.009 242.353 857.194 229.484 897.851 197.546C895.074 286.033 837.907 340.515 710.844 361.556C737.538 372.453 769.477 373.017 810.211 359.02C771.097 518.334 609.163 404.109 545.208 539ZM402.792 539C432.032 495.884 446.227 453.425 447.693 411.624C450.701 324.076 408.038 258.697 344.7 211.636C278.044 162.132 209.537 149.827 142.958 112.91C109.707 94.4048 69.976 64.2517 3.93736 0C-17.5869 69.606 51.0748 181.483 162.554 240.662C127.991 242.259 90.806 229.39 50.149 197.452C52.9263 285.939 110.093 340.421 237.156 361.463C210.462 372.359 178.523 372.923 137.789 358.926C176.903 518.334 338.837 404.109 402.792 539Z" fill="url(#paint0_linear)" fill-opacity="0.2"/>
<defs>
<linearGradient id="paint0_linear" x1="474" y1="0" x2="474" y2="539" gradientUnits="userSpaceOnUse">
<stop stop-color="#16222A"/>
<stop offset="1" stop-color="#3A6073"/>
</linearGradient>
</defs>
</svg>
