<svg width="83" height="49" viewBox="0 0 83 49" fill="none" xmlns="http://www.w3.org/2000/svg">
<path fill-rule="evenodd" clip-rule="evenodd" d="M47.7347 48.0038C45.1747 44.1638 43.9319 40.3824 43.8035 36.6595C43.5401 28.8625 47.2754 23.0398 52.8209 18.8485C58.6568 14.4396 64.6549 13.3437 70.484 10.0559C73.3953 8.41614 76.8739 5.73067 82.6558 0.00836594C84.5403 6.20753 78.5287 16.1714 68.7684 21.4419C71.7944 21.5841 75.0501 20.438 78.6098 17.5936C78.3666 25.4743 73.3615 30.3265 62.2367 32.2005C64.5738 33.171 67.3702 33.2211 70.9366 31.9746C67.512 46.1633 53.3342 35.9903 47.7347 48.0038ZM35.2658 48.0038C37.8258 44.1638 39.0686 40.3824 39.1969 36.6595C39.4604 28.8625 35.7251 23.0398 30.1796 18.8485C24.3437 14.4396 18.3456 13.3437 12.5164 10.0559C9.60523 8.40777 6.12663 5.7223 0.344729 0C-1.53979 6.19916 4.47176 16.163 14.2321 21.4335C11.2061 21.5758 7.95036 20.4296 4.39071 17.5852C4.63387 25.4659 9.639 30.3182 20.7638 32.1921C18.4267 33.1626 15.6303 33.2128 12.0639 31.9663C15.4884 46.1633 29.6663 35.9903 35.2658 48.0038Z" fill="url(#paint0_linear)"/>
<defs>
<linearGradient id="paint0_linear" x1="41.5002" y1="0" x2="41.5002" y2="48.0038" gradientUnits="userSpaceOnUse">
<stop offset="0.270833"/>
<stop offset="0.677083" stop-color="#FBF7F7"/>
</linearGradient>
</defs>
</svg>
