<svg width="216" height="49" viewBox="0 0 216 49" fill="none" xmlns="http://www.w3.org/2000/svg">
<g clip-path="url(#clip0)">
<path fill-rule="evenodd" clip-rule="evenodd" d="M47.7343 48.7792C45.1744 44.9392 43.9315 41.1578 43.8032 37.4349C43.5398 29.6379 47.275 23.8152 52.8205 19.6239C58.6565 15.215 64.6545 14.1191 70.4837 10.8313C73.3949 9.19153 76.8735 6.50606 82.6554 0.783757C84.5399 6.98292 78.5284 16.9468 68.768 22.2173C71.7941 22.3595 75.0498 21.2134 78.6094 18.369C78.3662 26.2497 73.3611 31.1019 62.2364 32.9759C64.5734 33.9463 67.3698 33.9965 70.9362 32.75C67.5117 46.9386 53.3339 36.7657 47.7343 48.7792ZM35.2654 48.7792C37.8254 44.9392 39.0682 41.1578 39.1966 37.4349C39.46 29.6379 35.7247 23.8152 30.1792 19.6239C24.3433 15.215 18.3453 14.1191 12.5161 10.8313C9.60486 9.18316 6.12626 6.49769 0.344363 0.775391C-1.54016 6.97455 4.4714 16.9384 14.2317 22.2089C11.2057 22.3512 7.94999 21.205 4.39034 18.3606C4.63351 26.2413 9.63863 31.0936 20.7634 32.9675C18.4263 33.938 15.6299 33.9882 12.0635 32.7416C15.4881 46.9386 29.6659 36.7657 35.2654 48.7792Z" fill="url(#paint0_linear)"/>
</g>
<path d="M102.094 13.8379C102.115 14.2962 102.125 14.9316 102.125 15.7441C102.125 16.5358 102.063 17.4421 101.938 18.4629C101.792 18.5046 101.385 18.5254 100.719 18.5254C100.615 17.2962 100.396 16.4212 100.063 15.9004C99.75 15.3796 99.0938 15.1191 98.0938 15.1191H93.3125V23.3691L97.9063 23.0879H99.0313V24.9629H97.9063L93.3125 24.7754V31.4316C94.1667 31.7441 95.2396 31.9629 96.5313 32.0879C96.5313 32.5462 96.5 32.9421 96.4375 33.2754H88.125C88.125 33.1504 88.125 32.9837 88.125 32.7754C88.125 32.5671 88.1667 32.3379 88.25 32.0879C88.9792 31.9837 89.5 31.8275 89.8125 31.6191C90.125 31.39 90.2813 31.0046 90.2813 30.4629V15.4004C89.6979 15.1504 88.9688 15.0046 88.0938 14.9629C88.0938 14.4629 88.1354 14.0879 88.2188 13.8379H102.094ZM109.429 25.2754H115.054L112.179 16.2129L111.897 17.4941L109.429 25.2754ZM114.616 33.2754C114.616 32.8379 114.658 32.4525 114.741 32.1191C115.783 31.9108 116.533 31.6712 116.991 31.4004L115.491 26.6816H108.991L107.429 31.6504C107.929 31.9212 108.72 32.0775 109.804 32.1191C109.804 32.39 109.762 32.7754 109.679 33.2754H103.554C103.554 32.8379 103.595 32.4525 103.679 32.1191C104.845 31.9108 105.616 31.3066 105.991 30.3066L111.491 13.7441C112.179 13.5358 113.137 13.4316 114.366 13.4316L119.835 30.3066C120.043 30.9525 120.325 31.4108 120.679 31.6816C121.054 31.9316 121.606 32.0775 122.335 32.1191C122.293 32.6191 122.241 33.0046 122.179 33.2754H114.616ZM129.137 31.9316H134.544C135.523 31.9316 136.179 31.6816 136.512 31.1816C136.846 30.6608 137.065 29.7962 137.169 28.5879C137.565 28.5879 137.929 28.6087 138.262 28.6504C138.367 29.7546 138.419 30.6816 138.419 31.4316C138.419 32.1816 138.408 32.7962 138.387 33.2754H124.012C123.992 33.1712 123.981 33.015 123.981 32.8066C123.981 32.5983 124.033 32.3691 124.137 32.1191C124.846 32.015 125.346 31.8587 125.637 31.6504C125.95 31.4421 126.106 31.0671 126.106 30.5254V15.4004C125.523 15.1504 124.804 15.0046 123.95 14.9629C123.95 14.9004 123.95 14.7858 123.95 14.6191C123.95 14.4316 123.981 14.1712 124.044 13.8379H131.2C131.221 13.9421 131.231 14.0983 131.231 14.3066C131.231 14.515 131.179 14.7337 131.075 14.9629C130.387 15.0462 129.887 15.2025 129.575 15.4316C129.283 15.64 129.137 16.015 129.137 16.5566V31.9316ZM157.766 30.8379C155.933 32.7337 153.735 33.6816 151.172 33.6816C148.61 33.6816 146.433 32.7858 144.641 30.9941C142.849 29.2025 141.953 26.7858 141.953 23.7441C141.953 20.6816 142.933 18.1921 144.891 16.2754C146.849 14.3587 149.255 13.4004 152.11 13.4004C154.193 13.4004 155.922 13.7337 157.297 14.4004C157.255 15.9004 157.068 17.4108 156.735 18.9316C156.172 18.9316 155.86 18.9212 155.797 18.9004C155.755 17.7754 155.391 16.8796 154.703 16.2129C154.037 15.5254 153.141 15.1816 152.016 15.1816C150.016 15.1816 148.401 15.9316 147.172 17.4316C145.943 18.9108 145.328 20.9316 145.328 23.4941C145.328 26.0566 145.953 28.0462 147.203 29.4629C148.474 30.8587 150.058 31.5566 151.953 31.5566C153.87 31.5566 155.568 31.0566 157.047 30.0566L157.766 30.8379ZM164.727 23.0879C164.727 29.1712 166.55 32.2129 170.196 32.2129C171.883 32.2129 173.154 31.515 174.008 30.1191C174.883 28.7233 175.321 26.7337 175.321 24.1504C175.321 23.9629 175.321 23.7754 175.321 23.5879C175.279 20.6504 174.768 18.4629 173.789 17.0254C172.81 15.5879 171.487 14.8691 169.821 14.8691C168.154 14.8691 166.883 15.6087 166.008 17.0879C165.154 18.5671 164.727 20.5671 164.727 23.0879ZM176.446 30.9004C174.821 32.7754 172.675 33.7129 170.008 33.7129C167.341 33.7129 165.196 32.7858 163.571 30.9316C161.966 29.0566 161.164 26.6191 161.164 23.6191C161.164 20.5983 161.966 18.14 163.571 16.2441C165.196 14.3483 167.331 13.4004 169.977 13.4004C172.643 13.4004 174.8 14.3587 176.446 16.2754C178.091 18.1712 178.914 20.6191 178.914 23.6191C178.914 26.5983 178.091 29.0254 176.446 30.9004ZM201.721 13.8379C201.742 13.9629 201.753 14.1296 201.753 14.3379C201.753 14.5254 201.711 14.7337 201.628 14.9629C200.211 15.1296 199.503 15.7129 199.503 16.7129V33.2754H198.19L188.159 19.5879L186.44 17.0566V31.6816C186.982 31.9316 187.753 32.0775 188.753 32.1191C188.753 32.1816 188.753 32.2962 188.753 32.4629C188.753 32.6296 188.721 32.9004 188.659 33.2754H182.471C182.451 33.1504 182.44 32.9941 182.44 32.8066C182.44 32.5983 182.482 32.3691 182.565 32.1191C183.961 31.9316 184.659 31.3587 184.659 30.4004V15.3066C184.055 15.0775 183.326 14.9629 182.471 14.9629C182.513 14.4212 182.565 14.0462 182.628 13.8379H187.628L195.471 24.5254L197.721 27.9004V15.4004C197.18 15.1504 196.409 15.0046 195.409 14.9629C195.409 14.9004 195.409 14.7858 195.409 14.6191C195.409 14.4316 195.44 14.1712 195.503 13.8379H201.721Z" fill="white"/>
<defs>
<linearGradient id="paint0_linear" x1="41.4999" y1="0.775391" x2="41.4999" y2="48.7792" gradientUnits="userSpaceOnUse">
<stop offset="0.270833"/>
<stop offset="0.677083" stop-color="#FBF7F7"/>
</linearGradient>
<clipPath id="clip0">
<rect width="83" height="48.0038" fill="white" transform="translate(0 0.775391)"/>
</clipPath>
</defs>
</svg>
